<svg width="11473" height="2043" viewBox="0 0 11473 2043" fill="none" xmlns="http://www.w3.org/2000/svg">
<g clip-path="url(#clip0_454_68)">
<rect width="11473" height="2043" fill="white"/>
<path d="M0 0H11473V2043H0V0Z" fill="#E5795B"/>
<path d="M0 0H11473V2043H0V0Z" fill="#E5795B"/>
<g filter="url(#filter0_d_454_68)">
<path d="M1190.2 782.6H1030.2C1030.2 710.6 1025.4 685 1009.4 659.4C983.8 619.4 937.4 606.6 809.4 606.6C588.6 606.6 547 632.2 547 773C547 857.8 567.8 899.4 620.6 917C651 928.2 665.4 929.8 831.8 937.8C1020.6 947.4 1079.8 958.6 1131 995.4C1190.2 1040.2 1212.6 1105.8 1212.6 1233.8C1212.6 1389 1185.4 1464.2 1115 1509C1052.6 1547.4 975.8 1558.6 771 1558.6C603 1558.6 543.8 1549 478.2 1510.6C438.2 1486.6 403 1435.4 391.8 1381C382.2 1333 380.6 1302.6 379 1214.6H539C539 1310.6 543.8 1334.6 563 1368.2C590.2 1416.2 619 1422.6 798.2 1422.6C1023.8 1422.6 1051 1401.8 1051 1232.2C1051 1152.2 1033.4 1115.4 988.6 1097.8C959.8 1086.6 959.8 1086.6 774.2 1075.4C580.6 1065.8 558.2 1061 503.8 1035.4C419 993.8 383.8 918.6 383.8 777.8C383.8 654.6 409.4 576.2 465.4 534.6C529.4 486.6 609.4 472.2 799.8 472.2C1011 472.2 1094.2 494.6 1145.4 566.6C1175.8 611.4 1190.2 669 1190.2 750.6V782.6ZM1356.73 1549V481.8H1795.13C1982.33 481.8 2020.73 488.2 2083.13 531.4C2151.93 581 2182.33 672.2 2182.33 835.4C2182.33 1005 2139.13 1101 2043.13 1141C1991.93 1163.4 1985.53 1165 1791.93 1168.2H1519.93V1549H1356.73ZM1519.93 1027.4H1777.53C1985.53 1027.4 2017.53 1000.2 2017.53 832.2C2017.53 705.8 2003.13 657.8 1956.73 637C1927.93 622.6 1900.73 619.4 1806.33 619.4H1519.93V1027.4ZM3199.34 481.8V1549H3036.14V1073.8H2477.74V1549H2314.54V481.8H2477.74V934.6H3036.14V481.8H3199.34ZM3557.43 619.4V937.8H4077.43V1064.2H3557.43V1411.4H4104.62V1549H3394.23V481.8H4101.43V619.4H3557.43ZM4256.73 1549V481.8H4773.53C5018.33 481.8 5103.13 563.4 5103.13 793.8C5103.13 998.6 5063.12 1059.4 4914.33 1086.6V1091.4C5031.13 1097.8 5091.93 1169.8 5090.33 1297.8V1549H4925.53V1333C4928.73 1206.6 4872.73 1153.8 4744.73 1158.6H4419.93V1549H4256.73ZM4419.93 1017.8H4736.73C4808.73 1017.8 4855.13 1008.2 4885.53 985.8C4927.13 957 4938.33 921.8 4938.33 829C4938.33 704.2 4927.13 667.4 4880.73 641.8C4856.73 629 4816.73 622.6 4763.93 622.6H4419.93V1017.8ZM5424.61 619.4V937.8H5944.61V1064.2H5424.61V1411.4H5971.81V1549H5261.41V481.8H5968.61V619.4H5424.61ZM7111.11 1411.4L7043.91 1515.4L6944.71 1448.2C6872.71 1534.6 6789.51 1558.6 6570.31 1558.6C6387.91 1558.6 6325.51 1550.6 6255.11 1520.2C6175.11 1483.4 6125.51 1414.6 6104.71 1310.6C6093.51 1243.4 6090.31 1197 6090.31 1029C6090.31 755.4 6099.91 691.4 6147.91 609.8C6184.71 545.8 6251.91 502.6 6341.51 485C6381.51 477 6463.11 472.2 6560.71 472.2C6715.91 472.2 6787.91 481.8 6848.71 507.4C6941.51 547.4 6992.71 625.8 7011.91 757C7019.91 803.4 7021.51 853 7021.51 998.6C7021.51 1216.2 7018.31 1270.6 7002.31 1337.8L7111.11 1411.4ZM6527.11 1168.2L6597.51 1065.8L6851.91 1235.4C6853.51 1213 6855.11 1200.2 6855.11 1179.4C6856.71 1168.2 6856.71 1141 6856.71 1097.8V1013V864.2C6856.71 747.4 6831.11 670.6 6783.11 641.8C6744.71 619.4 6698.31 613 6559.11 613C6392.71 613 6343.11 622.6 6309.51 659.4C6267.91 705.8 6256.71 763.4 6256.71 928.2V1016.2L6255.11 1102.6C6251.91 1248.2 6266.31 1325 6304.71 1369.8C6339.91 1408.2 6391.11 1417.8 6584.71 1417.8C6725.51 1417.8 6757.51 1408.2 6808.71 1355.4L6527.11 1168.2ZM7913.81 481.8H8077.01V1209.8C8077.01 1339.4 8062.61 1401.8 8022.61 1454.6C7958.61 1536.2 7877.01 1558.6 7638.61 1558.6C7488.21 1558.6 7422.61 1550.6 7365.01 1528.2C7246.61 1480.2 7209.81 1406.6 7209.81 1216.2V481.8H7373.01V1216.2C7373.01 1289.8 7379.41 1329.8 7393.81 1353.8C7421.01 1401.8 7481.81 1417.8 7635.41 1417.8C7883.41 1417.8 7913.81 1395.4 7913.81 1211.4V481.8ZM8900.08 1334.6H8402.48L8328.88 1549H8156.08L8528.88 481.8H8767.28L9144.88 1549H8975.27L8900.08 1334.6ZM8860.08 1209.8L8650.48 609.8L8444.08 1209.8H8860.08ZM10197.8 481.8V1549H9924.19L9549.79 896.2C9530.59 861 9511.39 822.6 9442.59 689.8L9408.99 622.6H9402.59L9404.19 677L9405.79 733C9407.39 736.2 9407.39 792.2 9407.39 845V1549H9245.79V481.8H9517.79L9848.99 1069C9885.79 1134.6 9904.99 1169.8 9988.19 1325L10033 1409.8H10037.8V1355.4L10036.2 1301C10034.6 1293 10034.6 1240.2 10034.6 1190.6V481.8H10197.8ZM10802 629V1549H10638.8V629H10312.4V481.8H11133.2V630.6L10802 629Z" fill="white"/>
</g>
</g>
<defs>
<filter id="filter0_d_454_68" x="379" y="472.2" width="10754.2" height="1090.4" filterUnits="userSpaceOnUse" color-interpolation-filters="sRGB">
<feFlood flood-opacity="0" result="BackgroundImageFix"/>
<feColorMatrix in="SourceAlpha" type="matrix" values="0 0 0 0 0 0 0 0 0 0 0 0 0 0 0 0 0 0 127 0" result="hardAlpha"/>
<feOffset dy="4"/>
<feComposite in2="hardAlpha" operator="out"/>
<feColorMatrix type="matrix" values="0 0 0 0 0 0 0 0 0 0 0 0 0 0 0 0 0 0 0.25 0"/>
<feBlend mode="normal" in2="BackgroundImageFix" result="effect1_dropShadow_454_68"/>
<feBlend mode="normal" in="SourceGraphic" in2="effect1_dropShadow_454_68" result="shape"/>
</filter>
<clipPath id="clip0_454_68">
<rect width="11473" height="2043" fill="white"/>
</clipPath>
</defs>
</svg>
